<svg height="512" viewBox="0 0 64 64" width="512" xmlns="http://www.w3.org/2000/svg">
<g id="website" fill="#ffffff">
<path d="m61 2h-58a1 1 0 0 0 -1 1v56a3.009 3.009 0 0 0 3 3h54a3.009 3.009 0 0 0 3-3v-56a1 1 0 0 0 -1-1zm-4 58h-30v-3a7.008 7.008 0 0 1 7-7 .842.842 0 0 0 .04.27l2 7a1 1 0 0 0 .96.73h10a1 1 0 0 0 .96-.73l2-7a.842.842 0 0 0 .04-.27 7 7 0 0 1 7 7zm-8.98-29.03-2.88-.72a.994.994 0 0 0 -.77.12 1.02 1.02 0 0 0 -.45.64 2.8 2.8 0 0 1 -.65 1.31 3.346 3.346 0 0 1 -1.75.93 5.153 5.153 0 0 0 .42-.91 6.39 6.39 0 0 0 .05-2.49.993.993 0 0 0 -.99-.85h-1a1 1 0 0 0 -.45.11l-4 2a.977.977 0 0 0 -.55.89 1 1 0 0 1 -1-1v-2a3.009 3.009 0 0 1 3-3h13v1a4.992 4.992 0 0 1 -1.98 3.97zm.98 5.03h1v1h-1zm-12-3.38 3.09-1.55a2.347 2.347 0 0 1 -.03.6 3.954 3.954 0 0 1 -.6 1.06 1.589 1.589 0 0 0 -.34 1.74 1.669 1.669 0 0 0 1.37.81 5.32 5.32 0 0 0 4.25-1.61 4.829 4.829 0 0 0 .82-1.25l1.44.36v5.22a5 5 0 0 1 -10 0zm2.6 15.18a1.014 1.014 0 0 0 .4-.8v-2.29a7.042 7.042 0 0 0 4 0v2.29a1.014 1.014 0 0 0 .4.8l3.45 2.59-1.6 5.61h-8.5l-1.6-5.61zm20.4 11.2a1 1 0 0 1 -1 1v-3a9.014 9.014 0 0 0 -9-9h-2l-2-1.5v-2.76a7.007 7.007 0 0 0 2.92-4.74h1.08a2.006 2.006 0 0 0 2-2v-1a2.006 2.006 0 0 0 -2-2h-1v-1.28a7 7 0 0 0 3-5.72v-2a1 1 0 0 0 -1-1h-14a5 5 0 0 0 -5 5v2a3.009 3.009 0 0 0 3 3h-1a2.006 2.006 0 0 0 -2 2v1a2.006 2.006 0 0 0 2 2h1.08a7.007 7.007 0 0 0 2.92 4.74v2.76l-2 1.5h-2a9.014 9.014 0 0 0 -9 9v3h-20a1 1 0 0 1 -1-1v-49h56zm-25-23v1h-1v-1zm25-28h-56v-4h56z"/><path d="m10 16h16v2h-16z"/><path d="m10 20h16v2h-16z"/><path d="m10 24h16v2h-16z"/><path d="m27 12h-18a3.009 3.009 0 0 0 -3 3v12a3.009 3.009 0 0 0 3 3h9.46l3.71 5.55a.984.984 0 0 0 .83.45.967.967 0 0 0 .29-.04 1.008 1.008 0 0 0 .71-.96v-5h3a3.009 3.009 0 0 0 3-3v-12a3.009 3.009 0 0 0 -3-3zm1 15a1 1 0 0 1 -1 1h-4a1 1 0 0 0 -1 1v2.7l-2.17-3.25a1 1 0 0 0 -.83-.45h-10a1 1 0 0 1 -1-1v-12a1 1 0 0 1 1-1h18a1 1 0 0 1 1 1z"/><path d="m49 5h2v2h-2z"/><path d="m53 5h2v2h-2z"/><path d="m57 5h2v2h-2z"/></g></svg>