<svg id="Capa_1" enable-background="new 0 0 512 512" height="512" viewBox="0 0 512 512" width="512" xmlns="http://www.w3.org/2000/svg">
<g fill="#ffffff"><path d="m278.5 22.5c0-12.407-10.094-22.5-22.5-22.5s-22.5 10.093-22.5 22.5c0 9.777 6.271 18.114 15 21.21v50.98c-8.729 3.096-15 11.432-15 21.21s6.271 18.114 15 21.21v50.98c-8.729 3.096-15 11.432-15 21.21s6.271 18.114 15 21.21v50.981c-8.729 3.096-15 11.432-15 21.21s6.271 18.114 15 21.21v50.98c-8.729 3.096-15 11.432-15 21.21s6.271 18.114 15 21.21v50.98c-8.729 3.096-15 11.432-15 21.21 0 12.407 10.094 22.5 22.5 22.5s22.5-10.093 22.5-22.5c0-9.777-6.271-18.114-15-21.21v-50.98c8.729-3.096 15-11.432 15-21.21s-6.271-18.114-15-21.21v-50.98c8.729-3.096 15-11.432 15-21.21s-6.271-18.114-15-21.21v-50.981c8.729-3.096 15-11.432 15-21.21s-6.271-18.114-15-21.21v-50.98c8.729-3.096 15-11.432 15-21.21s-6.271-18.114-15-21.21v-50.98c8.729-3.096 15-11.433 15-21.21zm-22.5-7.5c4.136 0 7.5 3.364 7.5 7.5s-3.364 7.5-7.5 7.5-7.5-3.364-7.5-7.5 3.364-7.5 7.5-7.5zm0 482c-4.136 0-7.5-3.364-7.5-7.5s3.364-7.5 7.5-7.5 7.5 3.364 7.5 7.5-3.364 7.5-7.5 7.5zm0-93.4c-4.136 0-7.5-3.364-7.5-7.5s3.364-7.5 7.5-7.5 7.5 3.364 7.5 7.5-3.364 7.5-7.5 7.5zm0-93.4c-4.136 0-7.5-3.364-7.5-7.5s3.364-7.5 7.5-7.5 7.5 3.364 7.5 7.5-3.364 7.5-7.5 7.5zm0-93.4c-4.136 0-7.5-3.364-7.5-7.5s3.364-7.5 7.5-7.5 7.5 3.364 7.5 7.5-3.364 7.5-7.5 7.5zm0-93.4c-4.136 0-7.5-3.364-7.5-7.5s3.364-7.5 7.5-7.5 7.5 3.364 7.5 7.5-3.364 7.5-7.5 7.5z"/><path d="m504.5 30h-171.375c-4.143 0-7.5 3.358-7.5 7.5v51.73l-28.965 20.553c-1.996 1.416-3.175 3.716-3.16 6.163.016 2.447 1.223 4.732 3.235 6.123l28.89 19.968v52.263c0 4.142 3.357 7.5 7.5 7.5h171.375c4.143 0 7.5-3.358 7.5-7.5v-156.8c0-4.142-3.357-7.5-7.5-7.5zm-7.5 156.8h-156.375v-48.695c0-2.463-1.209-4.769-3.235-6.169l-23.315-16.116 23.391-16.598c1.982-1.407 3.16-3.687 3.16-6.117v-48.105h156.374z"/><path d="m504.5 216.8h-171.375c-4.143 0-7.5 3.358-7.5 7.5v51.73l-28.965 20.554c-1.996 1.416-3.175 3.716-3.16 6.163.016 2.447 1.223 4.732 3.235 6.124l28.89 19.967v52.262c0 4.142 3.357 7.5 7.5 7.5h171.375c4.143 0 7.5-3.358 7.5-7.5v-63.4c0-4.142-3.357-7.5-7.5-7.5s-7.5 3.358-7.5 7.5v55.9h-156.375v-48.696c0-2.463-1.209-4.769-3.235-6.17l-23.315-16.115 23.391-16.599c1.982-1.407 3.16-3.687 3.16-6.117v-48.103h156.374v55.9c0 4.142 3.357 7.5 7.5 7.5s7.5-3.358 7.5-7.5v-63.4c0-4.142-3.357-7.5-7.5-7.5z"/><path d="m215.34 203.183-28.965-20.553v-51.73c0-4.142-3.357-7.5-7.5-7.5h-171.375c-4.143 0-7.5 3.358-7.5 7.5v156.8c0 4.142 3.357 7.5 7.5 7.5h171.375c4.143 0 7.5-3.358 7.5-7.5v-52.263l28.89-19.968c2.013-1.391 3.22-3.676 3.235-6.123s-1.164-4.747-3.16-6.163zm-40.73 22.152c-2.026 1.4-3.235 3.707-3.235 6.169v48.696h-156.375v-141.8h156.375v48.104c0 2.43 1.178 4.71 3.16 6.117l23.391 16.598z"/><path d="m215.34 389.983-28.965-20.553v-51.73c0-4.142-3.357-7.5-7.5-7.5h-171.375c-4.143 0-7.5 3.358-7.5 7.5v156.8c0 4.142 3.357 7.5 7.5 7.5h171.375c4.143 0 7.5-3.358 7.5-7.5v-52.262l28.89-19.968c2.013-1.391 3.22-3.676 3.235-6.123s-1.164-4.748-3.16-6.164zm-40.73 22.152c-2.026 1.4-3.235 3.707-3.235 6.169v48.696h-156.375v-141.8h156.375v48.104c0 2.43 1.178 4.71 3.16 6.117l23.391 16.598z"/>
</g></svg>